<?xml version="1.0" standalone="no"?>
<!DOCTYPE svg PUBLIC "-//W3C//DTD SVG 20010904//EN"
 "http://www.w3.org/TR/2001/REC-SVG-20010904/DTD/svg10.dtd">
<svg version="1.0" xmlns="http://www.w3.org/2000/svg"
 width="500.000000pt" height="500.000000pt" viewBox="0 0 500.000000 500.000000"
 preserveAspectRatio="xMidYMid meet">
<metadata>
Created by potrace 1.14, written by Peter Selinger 2001-2017
</metadata>
<g transform="translate(0.000000,500.000000) scale(0.100000,-0.100000)"
fill="#000000" stroke="none">
<path d="M0 2500 l0 -2500 2500 0 2500 0 0 2500 0 2500 -2500 0 -2500 0 0
-2500z m2198 459 c92 -51 175 -97 185 -103 23 -14 31 -44 18 -60 -7 -8 -119
-89 -251 -181 -272 -189 -275 -190 -317 -114 -39 67 -31 82 94 174 141 105
173 133 173 155 0 10 -34 55 -75 100 -76 83 -89 111 -58 129 23 12 35 7 231
-100z m-300 -19 c32 -20 62 -71 62 -106 0 -31 -33 -85 -61 -99 -64 -33 -145
-10 -173 49 -22 46 -20 77 7 117 41 61 105 76 165 39z m660 -192 c16 -21 165
-576 158 -593 -8 -21 -48 -35 -100 -35 -52 0 -51 -2 -114 194 -32 101 -53 153
-67 162 -18 12 -33 8 -120 -27 -107 -43 -138 -46 -143 -13 -3 24 15 42 213
218 117 104 150 121 173 94z m-160 -414 c55 -39 68 -123 26 -173 -54 -64 -151
-59 -194 11 -34 56 -24 111 28 155 32 28 106 31 140 7z m-583 -428 c39 -17 57
-45 57 -91 0 -67 -46 -105 -127 -105 l-45 0 0 -50 c0 -43 -3 -50 -20 -50 -19
0 -20 7 -20 155 l0 155 60 0 c33 0 76 -6 95 -14z m193 -144 c2 -147 2 -152
-18 -152 -19 0 -20 6 -20 156 0 143 1 155 18 152 15 -3 17 -20 20 -156z m320
144 c31 -16 66 -53 75 -78 11 -31 -22 -21 -57 17 -30 31 -39 35 -85 35 -44 0
-57 -4 -81 -28 -60 -61 -43 -158 33 -196 33 -16 45 -17 78 -7 22 7 48 24 61
41 12 17 30 30 40 30 23 0 23 -7 -2 -47 -53 -87 -207 -88 -260 -1 -52 86 -20
204 65 239 32 13 104 10 133 -5z m222 -121 l0 -135 75 0 c68 0 75 -2 75 -20 0
-19 -7 -20 -95 -20 l-95 0 0 155 c0 148 1 155 20 155 19 0 20 -7 20 -135z
m272 15 c4 -138 12 -155 78 -155 66 0 74 17 78 155 3 110 5 120 23 120 18 0
19 -8 19 -105 0 -158 -28 -205 -120 -205 -92 0 -120 47 -120 205 0 97 1 105
19 105 18 0 20 -10 23 -120z m473 106 c66 -28 79 -111 25 -159 l-32 -28 36
-55 c36 -53 36 -54 13 -54 -18 0 -34 14 -61 55 -32 49 -40 55 -71 55 l-35 0 0
-55 c0 -48 -2 -55 -20 -55 -19 0 -20 7 -20 155 l0 155 65 0 c36 0 81 -6 100
-14z m-1801 -432 c35 -34 5 -84 -51 -84 l-33 0 0 50 0 50 34 0 c19 0 42 -7 50
-16z m146 6 c0 -5 -11 -10 -25 -10 -14 0 -25 -4 -25 -10 0 -5 9 -10 20 -10 11
0 20 -4 20 -10 0 -5 -9 -10 -20 -10 -11 0 -20 -4 -20 -10 0 -5 11 -10 25 -10
14 0 25 -4 25 -10 0 -5 -16 -10 -35 -10 l-35 0 0 50 0 50 35 0 c19 0 35 -4 35
-10z m135 -40 c0 -45 0 -45 -37 -48 l-38 -3 0 51 0 51 38 -3 c37 -3 37 -3 37
-48z m143 0 c17 -41 18 -50 6 -50 -7 0 -14 5 -14 10 0 14 -33 13 -48 -2 -21
-21 -24 0 -7 46 10 25 23 46 30 46 7 0 22 -22 33 -50z m104 34 c16 -16 18 -16
24 0 3 9 13 16 20 16 12 0 12 -5 -1 -30 -8 -16 -15 -38 -15 -50 0 -11 -7 -20
-15 -20 -9 0 -15 9 -15 23 0 13 -7 32 -15 43 -26 35 -15 47 17 18z m191 -31
c18 -47 16 -66 -5 -45 -15 15 -48 16 -48 2 0 -5 -7 -10 -15 -10 -19 0 -19 -1
5 54 10 25 25 46 32 46 8 0 21 -21 31 -47z m119 20 l17 -28 1 28 c0 17 5 27
15 27 11 0 15 -12 15 -50 0 -59 -16 -66 -45 -17 l-20 32 -3 -32 c-5 -52 -22
-38 -22 17 0 57 16 66 42 23z m263 -8 c0 -23 -5 -31 -22 -33 -13 -2 -23 -10
-23 -18 0 -8 -7 -14 -15 -14 -11 0 -15 12 -15 51 l0 50 38 -3 c34 -3 37 -6 37
-33z m141 -17 c1 -47 -11 -63 -22 -33 -4 8 -10 15 -15 15 -5 0 -9 -7 -9 -15 0
-8 -7 -15 -15 -15 -11 0 -15 12 -15 51 l0 50 38 -3 c37 -3 37 -3 38 -50z m146
-1 c15 -40 16 -47 3 -47 -8 0 -15 5 -15 10 0 14 -33 13 -48 -2 -21 -21 -23 -2
-5 46 22 59 41 57 65 -7z m158 43 c0 -5 -7 -10 -15 -10 -11 0 -15 -11 -15 -40
0 -29 -4 -40 -15 -40 -11 0 -15 11 -15 40 0 29 -4 40 -15 40 -8 0 -15 5 -15
10 0 6 20 10 45 10 25 0 45 -4 45 -10z m80 -40 c0 -27 -4 -50 -10 -50 -5 0
-10 23 -10 50 0 28 5 50 10 50 6 0 10 -22 10 -50z m93 30 c3 -11 12 -20 21
-20 9 0 16 8 16 20 0 11 7 20 15 20 11 0 15 -12 15 -50 0 -38 -4 -50 -15 -50
-8 0 -15 9 -15 20 0 13 -7 20 -20 20 -13 0 -20 -7 -20 -20 0 -11 -4 -20 -10
-20 -5 0 -10 23 -10 50 0 50 13 67 23 30z m202 -26 c17 -46 14 -67 -7 -46 -15
15 -48 16 -48 2 0 -5 -7 -10 -14 -10 -12 0 -11 9 6 50 11 28 26 50 33 50 7 0
20 -21 30 -46z m151 -6 c1 -47 -11 -63 -22 -33 -4 8 -10 15 -15 15 -5 0 -9 -7
-9 -15 0 -8 -7 -15 -15 -15 -11 0 -15 12 -15 51 l0 50 38 -3 c37 -3 37 -3 38
-50z"/>
<path d="M1700 1815 l0 -65 49 0 c66 0 88 22 82 80 -4 28 -42 50 -87 50 l-44
0 0 -65z"/>
<path d="M3170 1820 l0 -60 53 0 c55 0 84 14 87 40 8 59 -15 80 -86 80 l-54 0
0 -60z"/>
<path d="M1440 1440 c0 -20 5 -30 15 -30 21 0 37 34 23 48 -21 21 -38 13 -38
-18z"/>
<path d="M1730 1460 c0 -5 4 -10 9 -10 6 0 13 5 16 10 3 6 -1 10 -9 10 -9 0
-16 -4 -16 -10z"/>
<path d="M1730 1420 c0 -5 7 -10 15 -10 8 0 15 5 15 10 0 6 -7 10 -15 10 -8 0
-15 -4 -15 -10z"/>
<path d="M1880 1445 c0 -8 4 -15 10 -15 5 0 7 7 4 15 -4 8 -8 15 -10 15 -2 0
-4 -7 -4 -15z"/>
<path d="M2170 1440 c0 -5 5 -10 10 -10 6 0 10 5 10 10 0 6 -4 10 -10 10 -5 0
-10 -4 -10 -10z"/>
<path d="M2550 1454 c0 -9 5 -14 12 -12 18 6 21 28 4 28 -9 0 -16 -7 -16 -16z"/>
<path d="M2690 1454 c0 -9 5 -14 12 -12 18 6 21 28 4 28 -9 0 -16 -7 -16 -16z"/>
<path d="M2840 1440 c0 -5 5 -10 10 -10 6 0 10 5 10 10 0 6 -4 10 -10 10 -5 0
-10 -4 -10 -10z"/>
<path d="M3376 1445 c-3 -8 -1 -15 4 -15 6 0 10 7 10 15 0 8 -2 15 -4 15 -2 0
-6 -7 -10 -15z"/>
<path d="M3520 1454 c0 -9 5 -14 12 -12 18 6 21 28 4 28 -9 0 -16 -7 -16 -16z"/>
</g>
</svg>
